#Comment line ignore any data following # character 
#Hierarchical Translation and Rotation (.htr) file 
[Header]	
#Header keywords are followed by a single value 
FileType HTR		#Single word string
DataType HTRS		#Translation followed by rotation and scale data
FileVersion 1		#integer
NumSegments 84		#integer
NumFrames 2		#integer
DataFrameRate 30		#integer, data frame rate in this file
EulerRotationOrder ZYX
CalibrationUnits mm
RotationUnits Degrees
GlobalAxisofGravity Y
BoneLengthAxis Y
ScaleFactor 1.00
[SegmentNames&Hierarchy]
#CHILD	PARENT
MASTER GLOBAL
root MASTER
chest root
L_mid_tent01 root
R_mid_tent01 root
spine01 root
Bip01_Neck chest
L_humerus chest
R_humerus chest
weapon_bone chest
Bip01_Head Bip01_Neck
eye_left_bone Bip01_Head
eye_right_bone Bip01_Head
L_forearm L_humerus
L_front_hand L_forearm
L_weapon_bone L_forearm
L_front_hand01_01 L_front_hand
L_front_hand02_01 L_front_hand
L_front_hand03_01 L_front_hand
L_front_hand01_02 L_front_hand01_01
L_front_hand02_02 L_front_hand02_01
L_front_hand03_02 L_front_hand03_01
R_forearm R_humerus
R_front_hand R_forearm
R_weapon_bone R_forearm
R_front_hand01_01 R_front_hand
R_front_hand02_01 R_front_hand
R_front_hand03_01 R_front_hand
R_front_hand01_02 R_front_hand01_01
R_front_hand02_02 R_front_hand02_01
R_front_hand03_02 R_front_hand03_01
null_rope01_connect L_mid_tent01
Rope1_Seg01 null_rope01_connect
Rope1_Seg02 Rope1_Seg01
Rope1_Seg03 Rope1_Seg02
Rope1_Seg04 Rope1_Seg03
Rope1_Seg05 Rope1_Seg04
Rope1_Seg06 Rope1_Seg05
Rope1_Seg07 Rope1_Seg06
Rope1_Seg09 Rope1_Seg07
L_mid_hand01 Rope1_Seg09
L_mid_hand02 Rope1_Seg09
L_mid_hand03 Rope1_Seg09
null_rope02_connect R_mid_tent01
Rope2_Seg01 null_rope02_connect
Rope2_Seg02 Rope2_Seg01
Rope2_Seg03 Rope2_Seg02
Rope2_Seg04 Rope2_Seg03
Rope2_Seg05 Rope2_Seg04
Rope2_Seg06 Rope2_Seg05
Rope2_Seg07 Rope2_Seg06
Rope2_Seg09 Rope2_Seg07
R_mid_hand01 Rope2_Seg09
R_mid_hand02 Rope2_Seg09
R_mid_hand03 Rope2_Seg09
spine02 spine01
spine03 spine02
pelvis spine03
null_rope03_connect pelvis
null_rope04_connect pelvis
Rope3_Seg01 null_rope03_connect
Rope3_Seg02 Rope3_Seg01
Rope3_Seg03 Rope3_Seg02
Rope3_Seg04 Rope3_Seg03
Rope3_Seg05 Rope3_Seg04
Rope3_Seg06 Rope3_Seg05
Rope3_Seg07 Rope3_Seg06
Rope3_Seg08 Rope3_Seg07
Rope3_Seg09 Rope3_Seg08
R_rear_hand01 Rope3_Seg09
R_rear_hand02 Rope3_Seg09
R_rear_hand03 Rope3_Seg09
Rope4_Seg01 null_rope04_connect
Rope4_Seg02 Rope4_Seg01
Rope4_Seg03 Rope4_Seg02
Rope4_Seg04 Rope4_Seg03
Rope4_Seg05 Rope4_Seg04
Rope4_Seg06 Rope4_Seg05
Rope4_Seg07 Rope4_Seg06
Rope4_Seg08 Rope4_Seg07
Rope4_Seg09 Rope4_Seg08
L_rear_hand01 Rope4_Seg09
L_rear_hand02 Rope4_Seg09
L_rear_hand03 Rope4_Seg09
[BasePosition]
#SegmentName Tx, Ty, Tz, Rx, Ry, Rz, BoneLength
MASTER 0.000000 0.000000 0.000000 -90.000000 0.000000 0.000000 10.000000 
root 0.000000 0.000000 0.000000 0.000000 0.000000 0.000000 10.000000 
chest 0.000000 0.000000 0.000000 0.000000 0.000000 0.000000 10.000000 
L_mid_tent01 0.000000 0.000000 0.000000 0.000000 0.000000 0.000000 10.000000 
R_mid_tent01 0.000000 0.000000 0.000000 0.000000 0.000000 0.000000 10.000000 
spine01 0.000000 0.000000 0.000000 0.000000 0.000000 0.000000 10.000000 
Bip01_Neck 0.000000 0.000000 0.000000 0.000000 0.000000 0.000000 10.000000 
L_humerus 0.000000 0.000000 0.000000 0.000000 0.000000 0.000000 10.000000 
R_humerus 0.000000 0.000000 0.000000 0.000000 0.000000 0.000000 10.000000 
weapon_bone 0.000000 0.000000 0.000000 0.000000 0.000000 0.000000 10.000000 
Bip01_Head 0.000000 0.000000 0.000000 0.000000 0.000000 0.000000 10.000000 
eye_left_bone 0.000000 0.000000 0.000000 0.000000 0.000000 0.000000 10.000000 
eye_right_bone 0.000000 0.000000 0.000000 0.000000 0.000000 0.000000 10.000000 
L_forearm 0.000000 0.000000 0.000000 0.000000 0.000000 0.000000 10.000000 
L_front_hand 0.000000 0.000000 0.000000 0.000000 0.000000 0.000000 10.000000 
L_weapon_bone 0.000000 0.000000 0.000000 0.000000 0.000000 0.000000 10.000000 
L_front_hand01_01 0.000000 0.000000 0.000000 0.000000 0.000000 0.000000 10.000000 
L_front_hand02_01 0.000000 0.000000 0.000000 0.000000 0.000000 0.000000 10.000000 
L_front_hand03_01 0.000000 0.000000 0.000000 0.000000 0.000000 0.000000 10.000000 
L_front_hand01_02 0.000000 0.000000 0.000000 0.000000 0.000000 0.000000 10.000000 
L_front_hand02_02 0.000000 0.000000 0.000000 0.000000 0.000000 0.000000 10.000000 
L_front_hand03_02 0.000000 0.000000 0.000000 0.000000 0.000000 0.000000 10.000000 
R_forearm 0.000000 0.000000 0.000000 0.000000 0.000000 0.000000 10.000000 
R_front_hand 0.000000 0.000000 0.000000 0.000000 0.000000 0.000000 10.000000 
R_weapon_bone 0.000000 0.000000 0.000000 0.000000 0.000000 0.000000 10.000000 
R_front_hand01_01 0.000000 0.000000 0.000000 0.000000 0.000000 0.000000 10.000000 
R_front_hand02_01 0.000000 0.000000 0.000000 0.000000 0.000000 0.000000 10.000000 
R_front_hand03_01 0.000000 0.000000 0.000000 0.000000 0.000000 0.000000 10.000000 
R_front_hand01_02 0.000000 0.000000 0.000000 0.000000 0.000000 0.000000 10.000000 
R_front_hand02_02 0.000000 0.000000 0.000000 0.000000 0.000000 0.000000 10.000000 
R_front_hand03_02 0.000000 0.000000 0.000000 0.000000 0.000000 0.000000 10.000000 
null_rope01_connect 0.000000 0.000000 0.000000 0.000000 0.000000 0.000000 10.000000 
Rope1_Seg01 0.000000 0.000000 0.000000 0.000000 0.000000 0.000000 10.000000 
Rope1_Seg02 0.000000 0.000000 0.000000 0.000000 0.000000 0.000000 10.000000 
Rope1_Seg03 0.000000 0.000000 0.000000 0.000000 0.000000 0.000000 10.000000 
Rope1_Seg04 0.000000 0.000000 0.000000 0.000000 0.000000 0.000000 10.000000 
Rope1_Seg05 0.000000 0.000000 0.000000 0.000000 0.000000 0.000000 10.000000 
Rope1_Seg06 0.000000 0.000000 0.000000 0.000000 0.000000 0.000000 10.000000 
Rope1_Seg07 0.000000 0.000000 0.000000 0.000000 0.000000 0.000000 10.000000 
Rope1_Seg09 0.000000 0.000000 0.000000 0.000000 0.000000 0.000000 10.000000 
L_mid_hand01 0.000000 0.000000 0.000000 0.000000 0.000000 0.000000 10.000000 
L_mid_hand02 0.000000 0.000000 0.000000 0.000000 0.000000 0.000000 10.000000 
L_mid_hand03 0.000000 0.000000 0.000000 0.000000 0.000000 0.000000 10.000000 
null_rope02_connect 0.000000 0.000000 0.000000 0.000000 0.000000 0.000000 10.000000 
Rope2_Seg01 0.000000 0.000000 0.000000 0.000000 0.000000 0.000000 10.000000 
Rope2_Seg02 0.000000 0.000000 0.000000 0.000000 0.000000 0.000000 10.000000 
Rope2_Seg03 0.000000 0.000000 0.000000 0.000000 0.000000 0.000000 10.000000 
Rope2_Seg04 0.000000 0.000000 0.000000 0.000000 0.000000 0.000000 10.000000 
Rope2_Seg05 0.000000 0.000000 0.000000 0.000000 0.000000 0.000000 10.000000 
Rope2_Seg06 0.000000 0.000000 0.000000 0.000000 0.000000 0.000000 10.000000 
Rope2_Seg07 0.000000 0.000000 0.000000 0.000000 0.000000 0.000000 10.000000 
Rope2_Seg09 0.000000 0.000000 0.000000 0.000000 0.000000 0.000000 10.000000 
R_mid_hand01 0.000000 0.000000 0.000000 0.000000 0.000000 0.000000 10.000000 
R_mid_hand02 0.000000 0.000000 0.000000 0.000000 0.000000 0.000000 10.000000 
R_mid_hand03 0.000000 0.000000 0.000000 0.000000 0.000000 0.000000 10.000000 
spine02 0.000000 0.000000 0.000000 0.000000 0.000000 0.000000 10.000000 
spine03 0.000000 0.000000 0.000000 0.000000 0.000000 0.000000 10.000000 
pelvis 0.000000 0.000000 0.000000 0.000000 0.000000 0.000000 10.000000 
null_rope03_connect 0.000000 0.000000 0.000000 0.000000 0.000000 0.000000 10.000000 
null_rope04_connect 0.000000 0.000000 0.000000 0.000000 0.000000 0.000000 10.000000 
Rope3_Seg01 0.000000 0.000000 0.000000 0.000000 0.000000 0.000000 10.000000 
Rope3_Seg02 0.000000 0.000000 0.000000 0.000000 0.000000 0.000000 10.000000 
Rope3_Seg03 0.000000 0.000000 0.000000 0.000000 0.000000 0.000000 10.000000 
Rope3_Seg04 0.000000 0.000000 0.000000 0.000000 0.000000 0.000000 10.000000 
Rope3_Seg05 0.000000 0.000000 0.000000 0.000000 0.000000 0.000000 10.000000 
Rope3_Seg06 0.000000 0.000000 0.000000 0.000000 0.000000 0.000000 10.000000 
Rope3_Seg07 0.000000 0.000000 0.000000 0.000000 0.000000 0.000000 10.000000 
Rope3_Seg08 0.000000 0.000000 0.000000 0.000000 0.000000 0.000000 10.000000 
Rope3_Seg09 0.000000 0.000000 0.000000 0.000000 0.000000 0.000000 10.000000 
R_rear_hand01 0.000000 0.000000 0.000000 0.000000 0.000000 0.000000 10.000000 
R_rear_hand02 0.000000 0.000000 0.000000 0.000000 0.000000 0.000000 10.000000 
R_rear_hand03 0.000000 0.000000 0.000000 0.000000 0.000000 0.000000 10.000000 
Rope4_Seg01 0.000000 0.000000 0.000000 0.000000 0.000000 0.000000 10.000000 
Rope4_Seg02 0.000000 0.000000 0.000000 0.000000 0.000000 0.000000 10.000000 
Rope4_Seg03 0.000000 0.000000 0.000000 0.000000 0.000000 0.000000 10.000000 
Rope4_Seg04 0.000000 0.000000 0.000000 0.000000 0.000000 0.000000 10.000000 
Rope4_Seg05 0.000000 0.000000 0.000000 0.000000 0.000000 0.000000 10.000000 
Rope4_Seg06 0.000000 0.000000 0.000000 0.000000 0.000000 0.000000 10.000000 
Rope4_Seg07 0.000000 0.000000 0.000000 0.000000 0.000000 0.000000 10.000000 
Rope4_Seg08 0.000000 0.000000 0.000000 0.000000 0.000000 0.000000 10.000000 
Rope4_Seg09 0.000000 0.000000 0.000000 0.000000 0.000000 0.000000 10.000000 
L_rear_hand01 0.000000 0.000000 0.000000 0.000000 0.000000 0.000000 10.000000 
L_rear_hand02 0.000000 0.000000 0.000000 0.000000 0.000000 0.000000 10.000000 
L_rear_hand03 0.000000 0.000000 0.000000 0.000000 0.000000 0.000000 10.000000 
#Beginning of Data. Separated by tabs
#Fr	Tx	Ty	Tz	Rx	Ry	Rz	SF
[MASTER]
15 0.000000 0.000000 0.000000 0.001660 0.001660 0.001660 0.000000
16 0.000000 0.000000 0.000000 0.001660 0.001660 0.001660 0.000000
[root]
15 -35.719204 -54.291687 1502.356323 -124.199463 -27.545063 -90.612999 1503.761230
16 -34.956097 -54.719734 1502.262695 -120.419266 -29.994083 -89.737984 1503.665405
[chest]
15 -84.512650 -34.090519 0.000000 -10.926410 11.791976 162.044907 91.129311
16 -84.512650 -34.090519 0.000000 -10.194621 10.476244 166.476303 91.129311
[L_mid_tent01]
15 27.299156 22.179106 -249.918716 2.413517 5.250864 79.188560 252.381699
16 27.299160 22.179106 -249.918716 2.482644 7.495415 79.312782 252.381699
[R_mid_tent01]
15 23.228794 24.509907 226.238495 166.124023 -9.859152 74.639084 228.744751
16 23.228794 24.509907 226.238495 166.049484 -13.167555 75.513756 228.744751
[spine01]
15 -0.361383 -0.195265 0.000000 0.002062 0.001122 32.879829 0.410763
16 -0.361383 -0.195265 0.000000 0.002062 0.001122 32.879829 0.410763
[Bip01_Neck]
15 165.484543 71.581718 0.000119 176.643677 -1.657967 43.431911 180.302734
16 165.484543 71.581718 0.000119 176.643677 -1.657967 43.431911 180.302734
[L_humerus]
15 -13.983130 -135.272980 -120.471481 163.988876 26.374310 -71.712883 181.680161
16 -13.983130 -135.272980 -120.471481 165.147842 31.400009 -75.137802 181.680161
[R_humerus]
15 -13.983309 -135.273102 125.287651 -173.405701 -9.248827 -94.899696 184.909012
16 -13.983309 -135.273102 125.287651 -171.856262 -12.487121 -98.504448 184.909012
[weapon_bone]
15 235.964890 -300.705902 0.000000 0.000000 -89.951546 -128.212341 382.234833
16 235.964890 -300.705902 0.000000 0.000000 -89.951546 -128.212341 382.234833
[Bip01_Head]
15 213.444244 185.715561 11.776938 18.302031 3.052336 -43.894665 283.173798
16 213.444260 185.715576 11.776939 17.796013 3.073035 -43.894356 283.173828
[eye_left_bone]
15 -24.626970 125.451866 -64.772606 0.000000 -90.000000 -99.840431 143.318359
16 -24.626970 125.451866 -64.772606 0.000000 -90.000000 -99.840431 143.318359
[eye_right_bone]
15 -24.626970 125.451866 64.327362 0.000000 -89.965736 80.156380 143.117676
16 -24.626970 125.451866 64.327362 0.000000 -89.965736 80.156380 143.117676
[L_forearm]
15 322.776093 0.000000 -0.000119 0.000396 -0.002314 -109.419975 322.776093
16 322.776093 0.000000 -0.000119 0.000396 -0.002314 -109.419975 322.776093
[L_front_hand]
15 241.149185 -0.042021 -3.300071 -178.667953 -1.835447 -27.422350 241.171753
16 241.149185 -0.042021 -3.300071 -178.667953 -1.835447 -27.422350 241.171753
[L_weapon_bone]
15 156.183838 0.000000 0.000000 0.000014 0.000007 0.000001 156.183838
16 156.183838 0.000000 0.000000 0.000014 0.000007 0.000001 156.183838
[L_front_hand01_01]
15 86.095154 20.947098 -0.655860 -0.280129 -0.529412 65.560852 88.609184
16 86.095154 20.947098 -0.655860 -0.282032 -0.528401 65.973099 88.609184
[L_front_hand02_01]
15 86.935165 -11.437475 24.513514 141.398849 -54.622883 -45.953125 91.046425
16 86.935165 -11.437475 24.513514 141.856018 -54.874397 -46.511227 91.046425
[L_front_hand03_01]
15 86.637497 -14.123976 -20.424902 -141.774887 52.850571 -48.007915 90.126129
16 86.637497 -14.123976 -20.424902 -142.205841 53.103298 -48.551647 90.126129
[L_front_hand01_02]
15 71.020905 -0.000179 0.000030 0.000315 -0.002326 -105.411415 71.020905
16 71.020905 -0.000179 0.000030 0.000315 -0.002326 -105.412971 71.020905
[L_front_hand02_02]
15 71.020927 -0.000119 0.000060 0.000315 -0.002326 -105.411415 71.020927
16 71.020927 -0.000119 0.000060 0.000315 -0.002326 -105.412971 71.020927
[L_front_hand03_02]
15 71.020905 -0.000060 0.000060 0.000315 -0.002326 -105.411415 71.020905
16 71.020905 -0.000060 0.000060 0.000315 -0.002326 -105.412971 71.020905
[R_forearm]
15 322.776428 -0.000060 0.000030 0.202103 0.065158 -108.062805 322.776428
16 322.776428 -0.000060 0.000030 0.202103 0.065158 -108.062805 322.776428
[R_front_hand]
15 238.847015 -0.006795 2.210259 -2.635298 -10.645461 -26.312506 238.857239
16 238.847015 -0.006795 2.210259 -2.635298 -10.645461 -26.312506 238.857239
[R_weapon_bone]
15 155.664093 0.002503 -0.000030 0.003487 0.001180 -90.988930 155.664078
16 155.664093 0.002503 -0.000030 0.003487 0.001180 -90.988930 155.664078
[R_front_hand01_01]
15 87.624611 14.231146 22.918642 -138.750473 -52.998306 42.777832 91.683487
16 87.624611 14.231146 22.918642 -139.581711 -53.528687 43.812489 91.683487
[R_front_hand02_01]
15 89.356956 14.367283 -19.491137 139.579330 51.434883 45.463142 92.579636
16 89.356956 14.367283 -19.491137 140.375336 51.957661 46.474552 92.579636
[R_front_hand03_01]
15 87.286232 -22.307278 -0.143439 0.065240 -0.451614 -63.269981 90.091743
16 87.286232 -22.307278 -0.143439 0.072643 -0.448515 -64.085037 90.091743
[R_front_hand01_02]
15 71.020905 0.000060 0.000119 0.002323 -0.000334 106.381714 71.020905
16 71.020905 0.000060 0.000119 0.002323 -0.000334 106.381714 71.020905
[R_front_hand02_02]
15 71.020844 -0.000030 -0.000119 0.002323 -0.000334 106.381714 71.020836
16 71.020844 -0.000030 -0.000119 0.002323 -0.000334 106.381714 71.020836
[R_front_hand03_02]
15 71.020905 0.000000 0.000030 0.002323 -0.000334 106.381714 71.020905
16 71.020905 0.000000 0.000030 0.002323 -0.000334 106.381714 71.020905
[null_rope01_connect]
15 328.732483 0.000000 -0.000238 -146.492050 -50.640469 -174.175766 328.732483
16 328.732483 0.000000 -0.000238 -143.981201 -52.661644 -174.040756 328.732483
[Rope1_Seg01]
15 -0.000028 0.000018 0.000073 -140.881363 35.175549 -121.948929 0.000081
16 -0.000028 0.000017 0.000068 -149.658890 31.193176 -122.448410 0.000075
[Rope1_Seg02]
15 139.999863 -0.000179 0.000000 4.918849 0.059524 -1.347226 139.999863
16 139.999863 -0.000179 0.000000 11.046459 -1.434621 -0.614096 139.999863
[Rope1_Seg03]
15 139.999924 0.000060 -0.000060 6.795567 0.084066 -1.638256 139.999924
16 139.999924 0.000060 -0.000060 6.354887 -2.000674 0.643632 139.999924
[Rope1_Seg04]
15 139.999924 -0.000060 -0.000119 8.392623 0.589975 -2.137156 139.999924
16 139.999924 -0.000060 -0.000119 19.171766 -4.459650 -1.153397 139.999924
[Rope1_Seg05]
15 139.999832 0.000119 -0.000060 57.488827 -5.933316 -6.687842 139.999832
16 139.999832 0.000119 -0.000060 41.884315 -8.258245 -7.452632 139.999832
[Rope1_Seg06]
15 139.999954 0.000119 -0.000060 9.922694 -4.017019 0.820151 139.999954
16 139.999954 0.000119 -0.000060 8.965955 -4.500935 0.214579 139.999954
[Rope1_Seg07]
15 139.999985 0.000060 0.000000 3.606493 -1.974292 0.676886 139.999985
16 139.999985 0.000060 0.000000 3.877607 -2.616073 0.576363 139.999985
[Rope1_Seg09]
15 121.602913 0.000119 -0.000089 -89.793175 -1.359789 0.847147 121.602913
16 121.602913 0.000119 -0.000089 -89.793175 -1.359789 0.847147 121.602913
[L_mid_hand01]
15 103.859421 1.038730 8.195221 125.237343 -64.549110 -33.063087 104.187431
16 103.859421 1.038730 8.195221 128.967407 -66.781502 -37.153923 104.187431
[L_mid_hand02]
15 105.572853 -4.139662 -10.864139 -165.437607 42.555290 -68.389664 106.211075
16 105.572853 -4.139662 -10.864139 -167.958466 43.201069 -72.096489 106.211075
[L_mid_hand03]
15 104.641464 17.579376 -3.913581 -7.221618 17.365685 70.892860 106.179977
16 104.641464 17.579376 -3.913581 -6.349805 17.696848 73.802612 106.179977
[null_rope02_connect]
15 328.732849 0.000179 -0.000119 -2.521487 57.756565 138.432709 328.732849
16 328.732849 0.000179 -0.000119 -10.365544 63.172791 127.995247 328.732849
[Rope2_Seg01]
15 -0.000042 0.000101 0.000000 109.911934 53.666267 -123.465782 0.000109
16 -0.000051 0.000100 0.000000 121.558777 60.273632 -113.039024 0.000112
[Rope2_Seg02]
15 139.999741 -0.000060 -0.000119 -1.596919 -4.471920 6.898973 139.999756
16 139.999741 -0.000060 -0.000119 -1.496727 -3.517010 5.081804 139.999756
[Rope2_Seg03]
15 140.000107 0.000030 0.000000 -2.095927 -11.960755 13.695846 140.000107
16 140.000107 0.000030 0.000000 -1.664905 -9.448071 8.529388 140.000107
[Rope2_Seg04]
15 139.999802 0.000000 -0.000060 0.999443 -13.609694 21.980186 139.999802
16 139.999802 0.000000 -0.000060 -1.633051 -8.653841 21.549498 139.999802
[Rope2_Seg05]
15 139.999985 -0.000060 0.000119 2.212387 25.987167 -0.076547 139.999985
16 139.999985 -0.000060 0.000119 3.758248 11.523997 16.222178 139.999985
[Rope2_Seg06]
15 139.999893 -0.000030 -0.000119 -0.267546 9.322836 1.141029 139.999893
16 139.999893 -0.000030 -0.000119 0.664615 3.207580 6.852169 139.999893
[Rope2_Seg07]
15 139.999893 0.000060 -0.000060 -0.496052 4.908231 0.861565 139.999893
16 139.999893 0.000060 -0.000060 0.232884 1.538836 3.215262 139.999893
[Rope2_Seg09]
15 121.338966 0.000089 -0.000060 33.793236 -1.359788 -0.847141 121.338966
16 121.338966 0.000089 -0.000060 33.793236 -1.359788 -0.847141 121.338966
[R_mid_hand01]
15 104.680779 11.144459 -10.335981 -30.602844 38.226109 49.022312 105.778534
16 104.680779 11.144459 -10.335981 -26.138153 41.132927 56.004204 105.778534
[R_mid_hand02]
15 104.070427 2.443552 8.231699 65.717690 -52.910217 20.326654 104.424065
16 104.070427 2.443552 8.231699 61.755348 -58.389744 25.118820 104.424065
[R_mid_hand03]
15 106.028137 -11.221827 -5.996406 -172.500290 13.960246 -58.664551 106.788818
16 106.028137 -11.221827 -5.996406 -174.049744 14.677135 -64.919739 106.788818
[spine02]
15 129.756927 0.001550 0.000119 0.360061 -4.044797 -12.915058 129.756927
16 129.756927 0.001550 0.000119 0.360061 -4.044797 -12.915058 129.756927
[spine03]
15 78.614067 0.081635 -4.899011 1.896495 3.831288 16.473045 78.766602
16 78.614067 0.081635 -4.899011 1.896495 3.831288 16.473045 78.766602
[pelvis]
15 169.435242 0.051022 0.000000 -0.060465 -0.180225 14.087930 169.435257
16 169.435242 0.051022 0.000000 -0.060465 -0.180225 14.087930 169.435257
[null_rope03_connect]
15 -1.257226 -2.466202 137.391083 -150.964005 -56.572063 -142.053940 137.418976
16 -1.257226 -2.466202 137.391083 -149.657761 -60.780571 -140.705963 137.418976
[null_rope04_connect]
15 -1.259640 -2.480268 -137.844437 -150.964005 -56.572063 -142.053940 137.872513
16 -1.259640 -2.480268 -137.844437 -149.657761 -60.780571 -140.705963 137.872513
[Rope3_Seg01]
15 0.000010 0.000018 -0.000073 -133.901199 10.257320 -105.191406 0.000076
16 0.000010 0.000017 -0.000068 -128.018036 -1.156624 -105.988472 0.000071
[Rope3_Seg02]
15 139.999924 -0.000119 0.000060 0.004355 10.847245 20.757139 139.999924
16 139.999924 -0.000119 0.000060 -8.462403 0.752725 20.891539 139.999924
[Rope3_Seg03]
15 139.999924 -0.000119 0.000119 0.669408 7.156459 11.121295 139.999924
16 139.999924 -0.000119 0.000119 -5.523505 0.778336 9.690730 139.999924
[Rope3_Seg04]
15 139.999924 0.000119 0.000000 -0.204557 3.064975 4.875856 139.999924
16 139.999924 0.000119 0.000000 -3.662456 -1.219111 3.000168 139.999924
[Rope3_Seg05]
15 139.999924 -0.000238 0.000060 -4.216512 -2.170203 -0.378787 139.999924
16 139.999924 -0.000238 0.000060 -2.368851 -2.986074 -0.931226 139.999924
[Rope3_Seg06]
15 139.999893 -0.000119 -0.000060 -4.862469 -6.707410 -4.941411 139.999893
16 139.999893 -0.000119 -0.000060 -1.402544 -4.264626 -3.242905 139.999893
[Rope3_Seg07]
15 139.999771 0.000060 -0.000119 -2.545700 -8.170193 -7.390180 139.999771
16 139.999771 0.000060 -0.000119 -1.071325 -3.030198 -1.523596 139.999771
[Rope3_Seg08]
15 139.999985 -0.000060 0.000000 -0.879807 -4.598704 -4.072223 139.999985
16 139.999985 -0.000060 0.000000 -0.537791 -2.179505 -1.026908 139.999985
[Rope3_Seg09]
15 90.185997 -0.000179 -0.000060 89.793228 -1.359877 -0.847183 90.185997
16 90.185997 -0.000179 -0.000060 89.793228 -1.359877 -0.847183 90.185997
[R_rear_hand01]
15 103.366196 -6.073594 -10.757982 -170.783508 22.977757 -56.832355 104.101845
16 103.366196 -6.073594 -10.757982 -173.255844 23.779655 -63.055092 104.101845
[R_rear_hand02]
15 100.509819 12.039542 -7.992327 -23.183025 31.962259 54.046005 101.543350
16 100.509819 12.039542 -7.992327 -19.689718 34.072208 60.448601 101.543350
[R_rear_hand03]
15 101.539970 5.215704 5.435467 79.641159 -56.564785 12.536044 101.819031
16 101.539970 5.215704 5.435467 77.724098 -62.219528 14.759771 101.819031
[Rope4_Seg01]
15 0.000010 0.000038 -0.000114 56.918865 -14.133194 -153.913147 0.000121
16 0.000010 0.000038 -0.000114 62.121834 -19.455856 -147.422867 0.000121
[Rope4_Seg02]
15 139.999985 0.000060 0.000119 -13.015985 25.821022 -5.398777 139.999985
16 139.999985 0.000060 0.000119 -15.701946 23.921785 -10.940671 139.999985
[Rope4_Seg03]
15 139.999924 0.000000 -0.000238 -2.911410 26.242584 0.750371 139.999924
16 139.999924 0.000000 -0.000238 -4.656886 23.943722 -3.835162 139.999924
[Rope4_Seg04]
15 139.999985 0.000000 0.000119 1.059570 20.659773 2.658411 139.999985
16 139.999985 0.000000 0.000119 0.071415 16.458826 -0.692601 139.999985
[Rope4_Seg05]
15 139.999802 -0.000060 -0.000119 0.611295 3.565574 -0.444446 139.999802
16 139.999802 -0.000060 -0.000119 0.497137 3.460889 -1.452913 139.999802
[Rope4_Seg06]
15 139.999924 0.000000 0.000060 0.201834 -5.353438 -2.374567 139.999924
16 139.999924 0.000000 0.000060 0.322725 -3.157715 -2.491117 139.999924
[Rope4_Seg07]
15 139.999802 0.000000 0.000000 0.486384 -12.287646 -4.269839 139.999802
16 139.999802 0.000000 0.000000 0.308936 -4.498638 -2.906252 139.999802
[Rope4_Seg08]
15 139.999924 0.000000 0.000119 -1.323943 -5.573609 -2.375341 139.999924
16 139.999924 0.000000 0.000119 -1.419327 -1.168452 -1.814085 139.999924
[Rope4_Seg09]
15 90.185791 0.000060 0.000060 -135.617828 2.228885 0.850567 90.185791
16 90.185791 0.000060 0.000060 -135.617828 2.228885 0.850567 90.185791
[L_rear_hand01]
15 101.696655 -8.392275 -7.654577 -14.983498 -36.160755 111.383011 102.329041
16 101.696655 -8.392275 -7.654577 -13.444995 -36.689564 108.787300 102.329041
[L_rear_hand02]
15 102.726799 -1.568258 5.773216 73.935341 69.009872 161.086517 102.900848
16 102.726799 -1.568258 5.773216 72.216606 71.069710 159.259476 102.900848
[L_rear_hand03]
15 104.552910 9.721220 -10.420293 -176.376053 -24.412477 -109.309525 105.519653
16 104.552910 9.721220 -10.420293 -177.356842 -24.531609 -106.945930 105.519653
